<svg xmlns="http://www.w3.org/2000/svg" xmlns:xlink="http://www.w3.org/1999/xlink" version="1.1" x="0px" y="0px" viewBox="0 0 64 80" style="enable-background:new 0 0 64 64;" xml:space="preserve"><g><path d="M60.71,4.03H3.29C1.47,4.03,0,5.51,0,7.32v49.36c0,1.81,1.47,3.29,3.29,3.29h57.43c1.81,0,3.29-1.47,3.29-3.29V7.32   C64,5.51,62.53,4.03,60.71,4.03z M62.06,56.68c0,0.74-0.6,1.35-1.35,1.35H3.29c-0.74,0-1.35-0.6-1.35-1.35V16.35h60.12V56.68z    M62.06,14.41H1.94V7.32c0-0.74,0.6-1.35,1.35-1.35h57.43c0.74,0,1.35,0.6,1.35,1.35V14.41z"/><path d="M27.68,9.22H6.46c-0.54,0-0.97,0.43-0.97,0.97c0,0.54,0.43,0.97,0.97,0.97h21.22c0.54,0,0.97-0.43,0.97-0.97   C28.65,9.66,28.22,9.22,27.68,9.22z"/><path d="M46.89,9.22h-2.51c-0.54,0-0.97,0.43-0.97,0.97c0,0.54,0.43,0.97,0.97,0.97h2.51c0.54,0,0.97-0.43,0.97-0.97   C47.86,9.66,47.43,9.22,46.89,9.22z"/><path d="M52.69,9.22h-2.51c-0.54,0-0.97,0.43-0.97,0.97c0,0.54,0.43,0.97,0.97,0.97h2.51c0.54,0,0.97-0.43,0.97-0.97   C53.66,9.66,53.22,9.22,52.69,9.22z"/><path d="M58.48,9.22h-2.51c-0.54,0-0.97,0.43-0.97,0.97c0,0.54,0.43,0.97,0.97,0.97h2.51c0.54,0,0.97-0.43,0.97-0.97   C59.45,9.66,59.01,9.22,58.48,9.22z"/><path d="M6.3,55.07H57.7c1.09,0,1.97-0.88,1.97-1.97V21.28c0-1.09-0.88-1.97-1.97-1.97H6.3c-1.09,0-1.97,0.88-1.97,1.97V53.1   C4.33,54.19,5.21,55.07,6.3,55.07z M6.3,21.25l51.44,0.03V53.1c0,0.02-0.01,0.03-0.03,0.03L6.27,53.1L6.3,21.25z"/><path d="M17.98,37.01l7.78-6.47c0.41-0.34,0.47-0.95,0.13-1.37c-0.34-0.41-0.95-0.47-1.37-0.13l-8.66,7.19   c-0.22,0.18-0.35,0.45-0.35,0.73c0,0.28,0.12,0.56,0.33,0.74l8.66,7.59c0.18,0.16,0.41,0.24,0.64,0.24c0.27,0,0.54-0.11,0.73-0.33   c0.35-0.4,0.31-1.02-0.09-1.37L17.98,37.01z"/><path d="M39.48,29.05c-0.41-0.34-1.02-0.28-1.37,0.13c-0.34,0.41-0.29,1.02,0.13,1.37l7.78,6.47l-7.8,6.84   c-0.4,0.35-0.44,0.97-0.09,1.37c0.19,0.22,0.46,0.33,0.73,0.33c0.23,0,0.46-0.08,0.64-0.24l8.66-7.59   c0.21-0.19,0.33-0.46,0.33-0.74c0-0.28-0.13-0.55-0.35-0.73L39.48,29.05z"/><path d="M36.15,27.56c-0.5-0.2-1.06,0.05-1.25,0.55L28.1,45.56c-0.19,0.5,0.05,1.06,0.55,1.26c0.12,0.05,0.23,0.07,0.35,0.07   c0.39,0,0.75-0.23,0.9-0.62l6.79-17.45C36.89,28.32,36.65,27.76,36.15,27.56z"/></g><text x="0" y="79" fill="#000000" font-size="5px" font-weight="bold" font-family="'Helvetica Neue', Helvetica, Arial-Unicode, Arial, Sans-serif">Created by Rank Sol</text><text x="0" y="84" fill="#000000" font-size="5px" font-weight="bold" font-family="'Helvetica Neue', Helvetica, Arial-Unicode, Arial, Sans-serif">from the Noun Project</text></svg>